<svg width="112" height="55" viewBox="0 0 112 55" fill="none" xmlns="http://www.w3.org/2000/svg">
<path d="M26.024 0.431997C32.424 0.431997 37.608 2.384 41.576 6.288C45.544 10.128 47.528 15.696 47.528 22.992V54H38.888V24.24C38.888 18.992 37.576 14.992 34.952 12.24C32.328 9.424 28.744 8.016 24.2 8.016C19.592 8.016 15.912 9.456 13.16 12.336C10.472 15.216 9.128 19.408 9.128 24.912V54H0.392001V1.392H9.128V8.88C10.856 6.192 13.192 4.112 16.136 2.64C19.144 1.168 22.44 0.431997 26.024 0.431997ZM58.5343 27.504C58.5343 22.128 59.6223 17.424 61.7983 13.392C63.9743 9.296 66.9503 6.128 70.7263 3.888C74.5663 1.648 78.8223 0.527996 83.4943 0.527996C88.1023 0.527996 92.1023 1.52 95.4943 3.504C98.8863 5.488 101.414 7.984 103.078 10.992V1.392H111.91V54H103.078V44.208C101.35 47.28 98.7583 49.84 95.3023 51.888C91.9103 53.872 87.9423 54.864 83.3983 54.864C78.7263 54.864 74.5023 53.712 70.7263 51.408C66.9503 49.104 63.9743 45.872 61.7983 41.712C59.6223 37.552 58.5343 32.816 58.5343 27.504ZM103.078 27.6C103.078 23.632 102.278 20.176 100.678 17.232C99.0783 14.288 96.9023 12.048 94.1503 10.512C91.4623 8.912 88.4863 8.112 85.2223 8.112C81.9583 8.112 78.9823 8.88 76.2943 10.416C73.6063 11.952 71.4623 14.192 69.8623 17.136C68.2623 20.08 67.4623 23.536 67.4623 27.504C67.4623 31.536 68.2623 35.056 69.8623 38.064C71.4623 41.008 73.6063 43.28 76.2943 44.88C78.9823 46.416 81.9583 47.184 85.2223 47.184C88.4863 47.184 91.4623 46.416 94.1503 44.88C96.9023 43.28 99.0783 41.008 100.678 38.064C102.278 35.056 103.078 31.568 103.078 27.6Z" fill="#65D2AE"/>
</svg>
